<?xml version="1.0" encoding="utf-8"?>
<!-- Generator: Adobe Illustrator 24.1.2, SVG Export Plug-In . SVG Version: 6.00 Build 0)  -->
<svg version="1.1" id="Layer_1" xmlns="http://www.w3.org/2000/svg" xmlns:xlink="http://www.w3.org/1999/xlink" x="0px" y="0px"
	 viewBox="0 0 612 792" style="enable-background:new 0 0 612 792;" xml:space="preserve">
<style type="text/css">
	.st0{fill:#FEFEFE;}
	.st1{fill:#010101;}
	.st2{fill:#FCBC08;}
	.st3{fill:#E7F4F8;}
	.st4{fill:#FFFF00;}
	.st5{fill:#E2F5FA;}
	.st6{fill:#F3FF03;}
	.st7{fill:#FAF254;}
	.st8{fill:#FCEF06;}
	.st9{fill:#F9F206;}
	.st10{fill:#C8F2FE;}
	.st11{fill:#F8C200;}
	.st12{fill:#E5F9F9;}
</style>
<g>
	<path class="st0" d="M562,652c-170.64,0-341.27,0-512,0c0-170.59,0-341.22,0-512c170.6,0,341.3,0,512,0
		C562,310.59,562,481.28,562,652z M305.23,505.11c13.61-15.62,26.97-31.1,40.48-46.43c42.28-47.98,84.59-95.92,126.98-143.79
		c3.2-3.61,3.33-6.77,0.93-10.7c-14.7-24.03-29.28-48.14-44.08-72.11c-0.97-1.57-3.52-3.09-5.34-3.09
		c-78.82-0.25-157.64-0.31-236.46-0.46c-2.86-0.01-4.85,0.45-6.55,3.17c-14.83,23.78-29.85,47.44-44.77,71.17
		c-2.45,3.9-2.44,7.76,0.75,11.37c10.8,12.23,21.61,24.46,32.39,36.71c27.83,31.62,55.65,63.26,83.48,94.89
		C270.5,465.66,287.96,485.49,305.23,505.11z"/>
	<path class="st1" d="M305.23,505.11c-17.27-19.62-34.73-39.45-52.19-59.28c-27.83-31.63-55.65-63.26-83.48-94.89
		c-10.78-12.25-21.59-24.48-32.39-36.71c-3.19-3.61-3.2-7.48-0.75-11.37c14.92-23.73,29.94-47.39,44.77-71.17
		c1.7-2.72,3.69-3.17,6.55-3.17c78.82,0.15,157.64,0.22,236.46,0.46c1.82,0.01,4.36,1.52,5.34,3.09
		c14.81,23.97,29.38,48.08,44.08,72.11c2.4,3.92,2.27,7.08-0.93,10.7c-42.39,47.87-84.7,95.82-126.98,143.79
		C332.2,474.01,318.84,489.49,305.23,505.11z M334.2,315.8c-8.46-0.16-16.92-0.4-25.37-0.45c-19.98-0.11-39.95-0.15-59.93-0.1
		c-1.29,0-2.58,1.08-3.87,1.65c0.17,0.62,0.3,1.26,0.53,1.86c17.95,45.88,35.9,91.75,53.87,137.62c2.01,5.14,4.1,10.26,6.16,15.39
		c0.45,0.06,0.9,0.13,1.35,0.19c0.72-1.63,1.52-3.24,2.16-4.9c10.34-27.02,20.68-54.03,30.96-81.06
		c8.63-22.69,17.19-45.41,25.78-68.11c1.71-2.16,0.35-2.36-1.47-2.35C354.31,315.64,344.26,315.72,334.2,315.8z M350.96,302.11
		c3.01,0,6.02,0,10.31,0c-1.89-1.56-2.52-2.08-3.14-2.6c-3.25-2.91-6.63-5.68-9.72-8.75c-12.89-12.77-25.72-25.6-38.47-38.5
		c-1.61-1.62-2.65-3.8-3.95-5.72c0.3,0.52,0.59,1.04,0.89,1.57c-18.63,17.9-37.25,35.79-55.88,53.69c-0.48,3.94,2.64,2.01,3.86,2.01
		c33.71,0.13,67.42,0.11,101.13,0.1c1.24,0,2.47-0.14,3.71-0.21c-0.02-0.13-0.05-0.26-0.07-0.38
		C356.73,302.9,353.85,302.5,350.96,302.11z M156.1,301.82c-0.03,0.28-0.14,0.79-0.09,0.81c0.44,0.15,0.91,0.27,1.37,0.27
		c20.7,0.01,41.39,0.02,62.09-0.03c0.44,0,0.88-0.67,1.32-1.03c-0.48-1.19-0.81-2.47-1.47-3.54c-5.62-9.01-11.28-17.99-16.97-26.95
		c-4.63-7.29-9.31-14.55-14.28-22.31c-10.8,17.19-21.11,33.59-31.36,50.02C156.23,299.81,156.29,300.89,156.1,301.82z
		 M202.13,243.85c11.03,17.82,22.05,35.64,33.32,53.84c8.15-8.77,15.85-17.13,23.64-25.41c8.93-9.5,17.95-18.92,26.93-28.37
		c0.54-0.46,1.08-0.92,2.39-2.05c-29.77,0-58.55,0-87.78,0C201.35,242.81,201.74,243.33,202.13,243.85z M382.97,315.91
		c-0.8,1.35-1.81,2.63-2.37,4.08c-14.38,37.24-28.71,74.5-43.04,111.76c-3.46,8.99-6.93,17.98-10.39,26.96
		c3.02-1.54,5.53-3.39,7.54-5.68c13.65-15.59,27.19-31.29,40.78-46.93c13.01-14.97,26.08-29.9,39.07-44.89
		c12.48-14.41,24.89-28.88,37.33-43.32c0.49-0.42,0.97-0.84,2.29-1.97C429.82,315.91,406.4,315.91,382.97,315.91z M230.83,314.96
		c0.01-0.28,0.13-0.68-0.01-0.81c-0.19-0.19-0.58-0.24-0.88-0.24c-23.04-0.01-46.08-0.02-69.12,0.07c-0.93,0-1.85,0.94-2.78,1.45
		c13.61,15.64,27.25,31.26,40.84,46.92c14.95,17.24,29.88,34.5,44.78,51.77c8.12,9.4,16.14,18.89,24.27,28.28
		c4.76,5.5,9.66,10.89,14.49,16.34c0.39-1.7,0.07-2.94-0.37-4.14c-9.83-27.03-19.63-54.08-29.52-81.08
		C245.38,353.97,238.07,334.47,230.83,314.96z M324.33,241.96c16.78,17.67,34.27,36.08,52.22,54.97
		c12.42-18.8,24.22-36.65,36.32-54.97C382.19,241.96,352.4,241.96,324.33,241.96z M424.65,248.24c-12.16,18.86-23.26,36.06-34.83,54
		c22.23,0,43.57,0,65.71,0C445.34,284.41,435.37,266.98,424.65,248.24z"/>
	<path class="st2" d="M365.83,317.89c-8.59,22.7-17.15,45.42-25.78,68.11c-10.28,27.04-20.63,54.05-30.96,81.06
		c-0.64,1.67-1.44,3.27-2.16,4.9c-0.45-0.06-0.9-0.13-1.35-0.19c-2.05-5.13-4.14-10.24-6.16-15.39
		c-17.97-45.87-35.92-91.75-53.87-137.62c-0.23-0.6-0.36-1.24-0.53-1.86c12.97,0,25.95,0,38.92,0c25.2,0,50.41-0.02,75.61,0.04
		C361.65,316.96,363.74,317.56,365.83,317.89z"/>
	<path class="st3" d="M230.83,314.96c7.24,19.52,14.55,39.02,21.71,58.56c9.9,27.01,19.7,54.05,29.52,81.08
		c0.44,1.2,0.76,2.44,0.37,4.14c-4.84-5.44-9.73-10.83-14.49-16.34c-8.13-9.39-16.15-18.88-24.27-28.28
		c-14.91-17.28-29.83-34.54-44.78-51.77c-13.59-15.66-27.22-31.28-40.83-46.92c1.81-0.13,3.63-0.37,5.44-0.37
		C185.94,315,208.39,314.98,230.83,314.96z"/>
	<path class="st4" d="M451.89,317.87c-12.44,14.44-24.85,28.91-37.33,43.32c-12.99,14.99-26.06,29.92-39.07,44.89
		c-13.59,15.64-27.13,31.34-40.78,46.93c-2.01,2.3-4.53,4.15-7.54,5.68c3.46-8.99,6.93-17.97,10.39-26.96
		c14.34-37.26,28.67-74.51,43.04-111.76c0.56-1.45,1.57-2.72,2.37-4.08c1.73,0.33,3.45,0.95,5.18,0.96
		c19.14,0.07,38.29,0.01,57.43,0.09C447.68,316.96,449.78,317.55,451.89,317.87z"/>
	<path class="st5" d="M250.99,301.79c18.63-17.9,37.25-35.79,55.88-53.69c-0.3-0.52-0.59-1.04-0.89-1.57
		c1.3,1.92,2.35,4.1,3.95,5.72c12.76,12.9,25.59,25.73,38.47,38.5c3.09,3.07,6.47,5.84,9.72,8.75c-1.49,0.46-2.97,1.28-4.47,1.33
		c-4.98,0.17-9.97-0.04-14.96,0.1c-4.58,0.13-9.16,0.53-13.73,0.81C300.31,301.76,275.65,301.77,250.99,301.79z"/>
	<path class="st6" d="M324.33,241.96c28.06,0,57.86,0,88.54,0c-12.11,18.32-23.9,36.18-36.32,54.97
		C358.61,278.04,341.12,259.63,324.33,241.96z"/>
	<path class="st6" d="M286.02,243.91c-8.98,9.45-17.99,18.87-26.93,28.37c-7.79,8.28-15.48,16.64-23.64,25.41
		c-11.26-18.2-22.29-36.02-33.32-53.84c1.76-0.32,3.53-0.92,5.29-0.92c24.27-0.06,48.53-0.06,72.8,0
		C282.15,242.93,284.09,243.57,286.02,243.91z"/>
	<path class="st7" d="M424.65,248.24c10.72,18.75,20.68,36.17,30.88,54c-22.14,0-43.49,0-65.71,0
		C401.39,284.3,412.49,267.09,424.65,248.24z"/>
	<path class="st2" d="M156.1,301.82c0.19-0.93,0.13-2.01,0.6-2.76c10.25-16.43,20.56-32.82,31.36-50.02
		c4.97,7.75,9.65,15.01,14.28,22.31c5.69,8.96,11.35,17.94,16.97,26.95c0.67,1.07,0.99,2.36,1.47,3.54
		C199.22,301.83,177.66,301.82,156.1,301.82z"/>
	<path d="M250.99,301.79c24.66-0.02,49.32-0.03,73.98-0.05c8.66,0.12,17.33,0.24,25.99,0.37c2.89,0.4,5.77,0.8,8.66,1.2
		c0.02,0.13,0.05,0.26,0.07,0.38c-1.24,0.07-2.47,0.21-3.71,0.21c-33.71,0.01-67.42,0.04-101.13-0.1
		C253.63,303.79,250.51,305.73,250.99,301.79z"/>
	<path class="st8" d="M283.95,316.91c-12.97,0-25.95,0-38.92,0c1.29-0.58,2.58-1.65,3.87-1.65c19.98-0.06,39.95-0.01,59.93,0.1
		c8.46,0.05,16.92,0.29,25.37,0.45c-15.04,0.04-30.07,0.05-45.11,0.16C287.38,315.97,285.66,316.58,283.95,316.91z"/>
	<path class="st9" d="M286.02,243.91c-1.93-0.34-3.86-0.98-5.79-0.98c-24.27-0.07-48.53-0.06-72.8,0c-1.77,0-3.53,0.6-5.29,0.92
		c-0.39-0.52-0.78-1.04-1.5-1.99c29.23,0,58.01,0,87.78,0C287.1,242.98,286.56,243.45,286.02,243.91z"/>
	<path class="st10" d="M283.95,316.91c1.71-0.33,3.43-0.93,5.14-0.95c15.03-0.11,30.07-0.12,45.11-0.16
		c10.06-0.08,20.11-0.16,30.17-0.26c1.82-0.02,3.18,0.19,1.47,2.35c-2.09-0.33-4.18-0.94-6.27-0.94
		C334.36,316.89,309.15,316.91,283.95,316.91z"/>
	<path d="M230.83,314.96c-22.45,0.03-44.89,0.04-67.34,0.09c-1.81,0-3.63,0.24-5.44,0.37c0.92-0.5,1.85-1.44,2.78-1.45
		c23.04-0.09,46.08-0.07,69.12-0.07c0.3,0,0.69,0.05,0.88,0.24C230.96,314.27,230.84,314.68,230.83,314.96z"/>
	<path class="st11" d="M451.89,317.87c-2.1-0.32-4.21-0.91-6.31-0.92c-19.14-0.07-38.29-0.02-57.43-0.09
		c-1.73-0.01-3.45-0.63-5.18-0.96c23.43,0,46.86,0,71.21,0C452.86,317.03,452.37,317.45,451.89,317.87z"/>
	<path d="M156.1,301.82c21.56,0.01,43.12,0.01,64.68,0.02c-0.44,0.36-0.88,1.03-1.32,1.03c-20.7,0.05-41.39,0.05-62.09,0.03
		c-0.46,0-0.93-0.13-1.37-0.27C155.96,302.6,156.07,302.1,156.1,301.82z"/>
	<path class="st12" d="M350.96,302.11c-8.66-0.12-17.33-0.24-25.99-0.37c4.58-0.28,9.15-0.68,13.73-0.81
		c4.98-0.14,9.98,0.07,14.96-0.1c1.5-0.05,2.98-0.87,4.47-1.33c0.63,0.52,1.25,1.04,3.14,2.6
		C356.98,302.11,353.97,302.11,350.96,302.11z"/>
</g>
</svg>
