# Blender v2.80 (sub 75) OBJ File: ''
# www.blender.org
mtllib Bondbreaker.mtl
o Cube_Cube.001
v -1.000000 -1.000000 1.000000
v -1.000000 -1.000000 -1.000000
v -1.000000 1.731970 0.000000
v 1.000000 -1.000000 1.000000
v 1.000000 -1.000000 -1.000000
v 1.000417 1.731970 -0.012864
vt 0.375000 0.250000
vt 0.625000 0.250000
vt 0.625000 0.500000
vt 0.375000 0.500000
vt 0.125000 0.500000
vt 0.375000 0.750000
vt 0.125000 0.750000
vn -0.0030 0.3418 -0.9398
vn 0.0000 -1.0000 0.0000
vn 0.0030 0.3457 0.9383
vn 1.0000 -0.0002 0.0000
vn -1.0000 0.0000 0.0000
usemtl None
s off
f 2/1/1 3/2/1 6/3/1 5/4/1
f 2/5/2 5/4/2 4/6/2 1/7/2
f 6/3/3 3/2/3 1/7/3 4/6/3
f 5/4/4 6/3/4 4/6/4
f 2/1/5 1/7/5 3/2/5
