# Blender v2.80 (sub 75) OBJ File: ''
# www.blender.org
mtllib EnergyWell_2.mtl
o Cube
v 1.000000 1.000000 -1.000000
v 1.000000 0.327313 -1.000000
v -1.000000 1.000000 -1.000000
v -1.000000 0.327313 -1.000000
v 1.000000 8.582169 -9.300436
v -1.000000 8.582169 -9.300436
v 1.000000 9.099753 -9.300436
v -1.000000 9.099753 -9.300436
v 1.000000 8.582169 -14.001450
v -1.000000 8.582169 -14.001450
v 1.000000 9.099753 -14.001450
v -1.000000 9.099753 -14.001450
v 1.000000 1.000000 1.000000
v 1.000000 0.327313 1.000000
v -1.000000 1.000000 1.000000
v -1.000000 0.327313 1.000000
v -1.000000 0.327313 0.000000
v 1.000000 1.000000 0.000000
v -1.000000 1.000000 0.000000
v 1.000000 0.327313 0.000000
v 1.000000 8.582169 9.300436
v -1.000000 8.582169 9.300436
v 1.000000 9.099753 9.300436
v -1.000000 9.099753 9.300436
v 1.000000 8.582169 14.001450
v -1.000000 8.582169 14.001450
v 1.000000 9.099753 14.001450
v -1.000000 9.099753 14.001450
vt 0.375000 0.625000
vt 0.625000 0.625000
vt 0.625000 0.750000
vt 0.375000 0.750000
vt 0.375000 0.500000
vt 0.125000 0.500000
vt 0.125000 0.500000
vt 0.375000 0.500000
vt 0.375000 0.625000
vt 0.125000 0.625000
vt 0.625000 0.750000
vt 0.625000 0.875000
vt 0.375000 0.875000
vt 0.375000 0.000000
vt 0.625000 0.000000
vt 0.625000 0.125000
vt 0.375000 0.125000
vt 0.375000 0.750000
vt 0.625000 0.750000
vt 0.625000 0.750000
vt 0.375000 0.750000
vt 0.375000 0.000000
vt 0.625000 0.000000
vt 0.625000 0.750000
vt 0.625000 0.500000
vt 0.875000 0.500000
vt 0.875000 0.750000
vt 0.625000 0.750000
vt 0.375000 0.000000
vt 0.625000 0.000000
vt 0.125000 0.500000
vt 0.375000 0.500000
vt 0.375000 0.750000
vt 0.625000 0.750000
vt 0.375000 0.500000
vt 0.375000 0.500000
vt 0.125000 0.500000
vt 0.125000 0.500000
vt 0.625000 0.750000
vt 0.375000 0.000000
vt 0.625000 0.000000
vt 0.375000 0.750000
vt 0.375000 0.750000
vt 0.625000 0.750000
vt 0.625000 0.750000
vt 0.625000 0.000000
vt 0.375000 0.000000
vt 0.625000 0.750000
vt 0.625000 0.500000
vt 0.625000 0.750000
vt 0.875000 0.750000
vt 0.875000 0.500000
vt 0.625000 0.000000
vt 0.375000 0.000000
vt 0.375000 0.500000
vt 0.125000 0.500000
vn -1.0000 0.0000 0.0000
vn 1.0000 0.0000 0.0000
vn 0.0000 -1.0000 0.0000
vn 0.0000 1.0000 0.0000
vn 0.0000 0.7157 0.6984
vn 0.0000 -0.7091 -0.7052
vn 0.0000 0.0000 -1.0000
vn 0.0000 0.7157 -0.6984
vn 0.0000 -0.7091 0.7052
vn 0.0000 0.0000 1.0000
usemtl Material
s off
f 17/1/1 19/2/1 3/3/1 4/4/1
f 1/5/2 2/6/2 5/7/2 7/8/2
f 2/6/2 1/5/2 18/9/2 20/10/2
f 4/4/3 2/11/3 20/12/3 17/13/3
f 1/14/4 3/15/4 19/16/4 18/17/4
f 6/18/1 8/19/1 12/20/1 10/21/1
f 3/15/5 1/14/5 7/22/5 8/23/5
f 4/4/1 3/3/1 8/19/1 6/18/1
f 2/11/6 4/4/6 6/18/6 5/24/6
f 10/25/7 12/26/7 11/27/7 9/28/7
f 5/24/3 6/18/3 10/21/3 9/28/3
f 8/23/4 7/22/4 11/29/4 12/30/4
f 7/8/2 5/7/2 9/31/2 11/32/2
f 17/1/1 16/33/1 15/34/1 19/2/1
f 13/35/2 23/36/2 21/37/2 14/38/2
f 14/38/2 20/10/2 18/9/2 13/35/2
f 16/33/3 17/13/3 20/12/3 14/39/3
f 13/40/4 18/17/4 19/16/4 15/41/4
f 22/42/1 26/43/1 28/44/1 24/45/1
f 15/41/8 24/46/8 23/47/8 13/40/8
f 16/33/1 22/42/1 24/45/1 15/34/1
f 14/39/9 21/48/9 22/42/9 16/33/9
f 26/49/10 25/50/10 27/51/10 28/52/10
f 21/48/3 25/50/3 26/43/3 22/42/3
f 24/46/4 28/53/4 27/54/4 23/47/4
f 23/36/2 27/55/2 25/56/2 21/37/2
